<svg xmlns="http://www.w3.org/2000/svg" viewBox="0 0 480 240"><line x1="20" y1="210" x2="460" y2="210" fill="none" stroke="#2160A8" stroke-width="2.5" stroke-linecap="round" stroke-linejoin="round"/><line x1="20" y1="110" x2="460" y2="110" stroke="#2160A8" stroke-width="0.75" opacity="0.2" stroke-dasharray="8 6"/><path d="M58 210 L62 124 h16 L82 210" fill="none" stroke="#2160A8" stroke-width="2.5" stroke-linecap="round" stroke-linejoin="round"/><line x1="50" y1="124" x2="90" y2="124" fill="none" stroke="#2160A8" stroke-width="2.5" stroke-linecap="round" stroke-linejoin="round"/><path d="M168 210 L172 124 h16 L192 210" fill="none" stroke="#2160A8" stroke-width="2.5" stroke-linecap="round" stroke-linejoin="round"/><line x1="160" y1="124" x2="200" y2="124" fill="none" stroke="#2160A8" stroke-width="2.5" stroke-linecap="round" stroke-linejoin="round"/><path d="M278 210 L282 124 h16 L302 210" fill="none" stroke="#2160A8" stroke-width="2.5" stroke-linecap="round" stroke-linejoin="round"/><line x1="270" y1="124" x2="310" y2="124" fill="none" stroke="#2160A8" stroke-width="2.5" stroke-linecap="round" stroke-linejoin="round"/><path d="M388 210 L392 124 h16 L412 210" fill="none" stroke="#2160A8" stroke-width="2.5" stroke-linecap="round" stroke-linejoin="round" opacity="0.3" stroke-dasharray="6 5"/><line x1="380" y1="124" x2="420" y2="124" fill="none" stroke="#2160A8" stroke-width="2.5" stroke-linecap="round" stroke-linejoin="round" opacity="0.3" stroke-dasharray="6 5"/><line x1="400" y1="70" x2="400" y2="210" fill="none" stroke="#2160A8" stroke-width="1.5" opacity="0.35" stroke-linecap="round"/><path d="M394 82 l6 -12 l6 12" fill="none" stroke="#2160A8" stroke-width="1.5" opacity="0.35" stroke-linecap="round"/></svg>