<svg xmlns="http://www.w3.org/2000/svg" viewBox="0 0 480 240"><line x1="20" y1="210" x2="460" y2="210" fill="none" stroke="#2160A8" stroke-width="2.5" stroke-linecap="round" stroke-linejoin="round"/><line x1="20" y1="110" x2="460" y2="110" stroke="#2160A8" stroke-width="0.75" opacity="0.2" stroke-dasharray="8 6"/><path d="M58 210 L62 124 h16 L82 210" fill="none" stroke="#2160A8" stroke-width="2.5" stroke-linecap="round" stroke-linejoin="round"/><line x1="50" y1="124" x2="90" y2="124" fill="none" stroke="#2160A8" stroke-width="2.5" stroke-linecap="round" stroke-linejoin="round"/><path d="M168 210 L172 124 h16 L192 210" fill="none" stroke="#2160A8" stroke-width="2.5" stroke-linecap="round" stroke-linejoin="round"/><line x1="160" y1="124" x2="200" y2="124" fill="none" stroke="#2160A8" stroke-width="2.5" stroke-linecap="round" stroke-linejoin="round"/><path d="M278 210 L282 124 h16 L302 210" fill="none" stroke="#2160A8" stroke-width="2.5" stroke-linecap="round" stroke-linejoin="round"/><line x1="270" y1="124" x2="310" y2="124" fill="none" stroke="#2160A8" stroke-width="2.5" stroke-linecap="round" stroke-linejoin="round"/><path d="M388 210 L392 124 h16 L412 210" fill="none" stroke="#2160A8" stroke-width="2.5" stroke-linecap="round" stroke-linejoin="round"/><line x1="380" y1="124" x2="420" y2="124" fill="none" stroke="#2160A8" stroke-width="2.5" stroke-linecap="round" stroke-linejoin="round"/><line x1="40" y1="110" x2="290" y2="110" fill="none" stroke="#2160A8" stroke-width="2.5" stroke-linecap="round" stroke-linejoin="round"/><line x1="40" y1="118" x2="290" y2="118" fill="none" stroke="#2160A8" stroke-width="2.5" stroke-linecap="round" stroke-linejoin="round"/><line x1="260" y1="58" x2="430" y2="58" fill="none" stroke="#2160A8" stroke-width="2.5" stroke-linecap="round" stroke-linejoin="round"/><line x1="260" y1="88" x2="430" y2="88" fill="none" stroke="#2160A8" stroke-width="2.5" stroke-linecap="round" stroke-linejoin="round"/><line x1="260" y1="88" x2="290" y2="58" fill="none" stroke="#2160A8" stroke-width="1.5" opacity="0.35" stroke-linecap="round"/><line x1="260" y1="58" x2="290" y2="88" fill="none" stroke="#2160A8" stroke-width="1.5" opacity="0.35" stroke-linecap="round"/><line x1="290" y1="88" x2="320" y2="58" fill="none" stroke="#2160A8" stroke-width="1.5" opacity="0.35" stroke-linecap="round"/><line x1="290" y1="58" x2="320" y2="88" fill="none" stroke="#2160A8" stroke-width="1.5" opacity="0.35" stroke-linecap="round"/><line x1="320" y1="88" x2="350" y2="58" fill="none" stroke="#2160A8" stroke-width="1.5" opacity="0.35" stroke-linecap="round"/><line x1="320" y1="58" x2="350" y2="88" fill="none" stroke="#2160A8" stroke-width="1.5" opacity="0.35" stroke-linecap="round"/><line x1="350" y1="88" x2="380" y2="58" fill="none" stroke="#2160A8" stroke-width="1.5" opacity="0.35" stroke-linecap="round"/><line x1="350" y1="58" x2="380" y2="88" fill="none" stroke="#2160A8" stroke-width="1.5" opacity="0.35" stroke-linecap="round"/><line x1="380" y1="88" x2="410" y2="58" fill="none" stroke="#2160A8" stroke-width="1.5" opacity="0.35" stroke-linecap="round"/><line x1="380" y1="58" x2="410" y2="88" fill="none" stroke="#2160A8" stroke-width="1.5" opacity="0.35" stroke-linecap="round"/><line x1="280" y1="88" x2="280" y2="110" fill="none" stroke="#2160A8" stroke-width="2.5" stroke-linecap="round" stroke-linejoin="round"/><line x1="410" y1="88" x2="410" y2="124" fill="none" stroke="#2160A8" stroke-width="2.5" stroke-linecap="round" stroke-linejoin="round"/><rect x="252" y="52" width="16" height="10" rx="2" fill="none" stroke="#2160A8" stroke-width="2.5" stroke-linecap="round" stroke-linejoin="round"/><rect x="422" y="52" width="16" height="10" rx="2" fill="none" stroke="#2160A8" stroke-width="2.5" stroke-linecap="round" stroke-linejoin="round"/><path d="M310 48 h40" fill="none" stroke="#2160A8" stroke-width="2.5" stroke-linecap="round" stroke-linejoin="round"/><path d="M350 48 l-10 -6 m10 6 l-10 6" fill="none" stroke="#2160A8" stroke-width="2.5" stroke-linecap="round" stroke-linejoin="round"/></svg>